<svg id="visual" viewBox="0 0 540 960" width="540" height="960" xmlns="http://www.w3.org/2000/svg" xmlns:xlink="http://www.w3.org/1999/xlink" version="1.1"><rect x="0" y="0" width="540" height="960" fill="#002233"></rect><path d="M0 683L12.8 692.7C25.7 702.3 51.3 721.7 77 731.3C102.7 741 128.3 741 154 741.5C179.7 742 205.3 743 231.2 737.3C257 731.7 283 719.3 308.8 729.8C334.7 740.3 360.3 773.7 386 774.2C411.7 774.7 437.3 742.3 463 721.8C488.7 701.3 514.3 692.7 527.2 688.3L540 684L540 961L527.2 961C514.3 961 488.7 961 463 961C437.3 961 411.7 961 386 961C360.3 961 334.7 961 308.8 961C283 961 257 961 231.2 961C205.3 961 179.7 961 154 961C128.3 961 102.7 961 77 961C51.3 961 25.7 961 12.8 961L0 961Z" fill="#0066FF" stroke-linecap="round" stroke-linejoin="miter"></path></svg>